<svg preserveAspectRatio="none" overflow="visible" style="display: block;" width="20" height="20" viewBox="0 0 20 20" fill="none" xmlns="http://www.w3.org/2000/svg">
<g id="Icon/money">
<path id="Vector" d="M15.8333 4.16667H4.16667C2.78595 4.16667 1.66667 5.28596 1.66667 6.66667V13.3333C1.66667 14.714 2.78595 15.8333 4.16667 15.8333H15.8333C17.214 15.8333 18.3333 14.714 18.3333 13.3333V6.66667C18.3333 5.28596 17.214 4.16667 15.8333 4.16667Z" stroke="#3155CB" stroke-width="1.5" stroke-linecap="round" stroke-linejoin="round"/>
<path id="Vector_2" d="M10 12.5C11.3807 12.5 12.5 11.3807 12.5 10C12.5 8.61929 11.3807 7.5 10 7.5C8.61929 7.5 7.5 8.61929 7.5 10C7.5 11.3807 8.61929 12.5 10 12.5Z" stroke="#3155CB" stroke-width="1.5" stroke-linecap="round" stroke-linejoin="round"/>
<path id="Vector_3" d="M5 10H5.00833M15 10H15.0083" stroke="#3155CB" stroke-width="1.5" stroke-linecap="round" stroke-linejoin="round"/>
</g>
</svg>
